<mxfile host="Electron" agent="Mozilla/5.0 (X11; Linux x86_64) AppleWebKit/537.36 (KHTML, like Gecko) draw.io/26.0.4 Chrome/128.0.6613.186 Electron/32.2.5 Safari/537.36" version="26.0.4">
  <diagram name="Page-1" id="8b7Ytrg-Wod3JsUT3NEX">
    <mxGraphModel dx="1311" dy="1409" grid="1" gridSize="10" guides="1" tooltips="1" connect="1" arrows="1" fold="1" page="1" pageScale="1" pageWidth="850" pageHeight="1100" math="0" shadow="0">
      <root>
        <mxCell id="0" />
        <mxCell id="1" parent="0" />
        <mxCell id="TmK4IqOJt-yaaSat89dy-1" value="VPC" style="points=[[0,0],[0.25,0],[0.5,0],[0.75,0],[1,0],[1,0.25],[1,0.5],[1,0.75],[1,1],[0.75,1],[0.5,1],[0.25,1],[0,1],[0,0.75],[0,0.5],[0,0.25]];outlineConnect=0;gradientColor=none;html=1;whiteSpace=wrap;fontSize=12;fontStyle=0;container=1;pointerEvents=0;collapsible=0;recursiveResize=0;shape=mxgraph.aws4.group;grIcon=mxgraph.aws4.group_vpc2;strokeColor=#8C4FFF;fillColor=none;verticalAlign=top;align=left;spacingLeft=30;fontColor=#AAB7B8;dashed=0;" vertex="1" parent="1">
          <mxGeometry x="245" y="290" width="360" height="520" as="geometry" />
        </mxCell>
        <mxCell id="TmK4IqOJt-yaaSat89dy-4" value="Private subnet" style="points=[[0,0],[0.25,0],[0.5,0],[0.75,0],[1,0],[1,0.25],[1,0.5],[1,0.75],[1,1],[0.75,1],[0.5,1],[0.25,1],[0,1],[0,0.75],[0,0.5],[0,0.25]];outlineConnect=0;gradientColor=none;html=1;whiteSpace=wrap;fontSize=12;fontStyle=0;container=1;pointerEvents=0;collapsible=0;recursiveResize=0;shape=mxgraph.aws4.group;grIcon=mxgraph.aws4.group_security_group;grStroke=0;strokeColor=#00A4A6;fillColor=#E6F6F7;verticalAlign=top;align=left;spacingLeft=30;fontColor=#147EBA;dashed=0;" vertex="1" parent="TmK4IqOJt-yaaSat89dy-1">
          <mxGeometry x="22" y="214" width="320" height="286" as="geometry" />
        </mxCell>
        <mxCell id="TmK4IqOJt-yaaSat89dy-3" value="RDS DB Instance" style="sketch=0;outlineConnect=0;fontColor=#232F3E;gradientColor=none;fillColor=#C925D1;strokeColor=none;dashed=0;verticalLabelPosition=middle;verticalAlign=middle;align=left;html=1;fontSize=12;fontStyle=0;aspect=fixed;pointerEvents=1;shape=mxgraph.aws4.rds_instance;labelPosition=right;spacingLeft=5;" vertex="1" parent="TmK4IqOJt-yaaSat89dy-4">
          <mxGeometry x="105" y="196" width="78" height="78" as="geometry" />
        </mxCell>
        <mxCell id="TmK4IqOJt-yaaSat89dy-13" style="edgeStyle=orthogonalEdgeStyle;rounded=0;orthogonalLoop=1;jettySize=auto;html=1;" edge="1" parent="TmK4IqOJt-yaaSat89dy-4" source="TmK4IqOJt-yaaSat89dy-2" target="TmK4IqOJt-yaaSat89dy-3">
          <mxGeometry relative="1" as="geometry" />
        </mxCell>
        <mxCell id="TmK4IqOJt-yaaSat89dy-2" value="RDS Proxy" style="sketch=0;outlineConnect=0;fontColor=#232F3E;gradientColor=none;fillColor=#C925D1;strokeColor=none;dashed=0;verticalLabelPosition=middle;verticalAlign=middle;align=left;html=1;fontSize=12;fontStyle=0;aspect=fixed;pointerEvents=1;shape=mxgraph.aws4.rds_proxy_alt;labelPosition=right;spacingLeft=5;" vertex="1" parent="TmK4IqOJt-yaaSat89dy-4">
          <mxGeometry x="105" y="37" width="78" height="78" as="geometry" />
        </mxCell>
        <mxCell id="TmK4IqOJt-yaaSat89dy-11" value="Lambda Functions" style="text;html=1;align=center;verticalAlign=middle;resizable=0;points=[];autosize=1;strokeColor=none;fillColor=none;fontSize=20;" vertex="1" parent="TmK4IqOJt-yaaSat89dy-1">
          <mxGeometry x="70" y="20" width="190" height="40" as="geometry" />
        </mxCell>
        <mxCell id="TmK4IqOJt-yaaSat89dy-17" style="edgeStyle=orthogonalEdgeStyle;rounded=0;orthogonalLoop=1;jettySize=auto;html=1;" edge="1" parent="TmK4IqOJt-yaaSat89dy-1" source="TmK4IqOJt-yaaSat89dy-5" target="TmK4IqOJt-yaaSat89dy-2">
          <mxGeometry relative="1" as="geometry">
            <Array as="points">
              <mxPoint x="46" y="170" />
              <mxPoint x="166" y="170" />
            </Array>
          </mxGeometry>
        </mxCell>
        <mxCell id="TmK4IqOJt-yaaSat89dy-5" value="" style="sketch=0;outlineConnect=0;fontColor=#232F3E;gradientColor=none;fillColor=#ED7100;strokeColor=none;dashed=0;verticalLabelPosition=bottom;verticalAlign=top;align=center;html=1;fontSize=12;fontStyle=0;aspect=fixed;pointerEvents=1;shape=mxgraph.aws4.lambda_function;" vertex="1" parent="TmK4IqOJt-yaaSat89dy-1">
          <mxGeometry x="22" y="70" width="48" height="48" as="geometry" />
        </mxCell>
        <mxCell id="TmK4IqOJt-yaaSat89dy-16" style="edgeStyle=orthogonalEdgeStyle;rounded=0;orthogonalLoop=1;jettySize=auto;html=1;" edge="1" parent="TmK4IqOJt-yaaSat89dy-1" source="TmK4IqOJt-yaaSat89dy-6" target="TmK4IqOJt-yaaSat89dy-2">
          <mxGeometry relative="1" as="geometry">
            <Array as="points">
              <mxPoint x="106" y="170" />
              <mxPoint x="166" y="170" />
            </Array>
          </mxGeometry>
        </mxCell>
        <mxCell id="TmK4IqOJt-yaaSat89dy-6" value="" style="sketch=0;outlineConnect=0;fontColor=#232F3E;gradientColor=none;fillColor=#ED7100;strokeColor=none;dashed=0;verticalLabelPosition=bottom;verticalAlign=top;align=center;html=1;fontSize=12;fontStyle=0;aspect=fixed;pointerEvents=1;shape=mxgraph.aws4.lambda_function;" vertex="1" parent="TmK4IqOJt-yaaSat89dy-1">
          <mxGeometry x="82" y="70" width="48" height="48" as="geometry" />
        </mxCell>
        <mxCell id="TmK4IqOJt-yaaSat89dy-12" style="edgeStyle=orthogonalEdgeStyle;rounded=0;orthogonalLoop=1;jettySize=auto;html=1;" edge="1" parent="TmK4IqOJt-yaaSat89dy-1" source="TmK4IqOJt-yaaSat89dy-7" target="TmK4IqOJt-yaaSat89dy-2">
          <mxGeometry relative="1" as="geometry" />
        </mxCell>
        <mxCell id="TmK4IqOJt-yaaSat89dy-7" value="" style="sketch=0;outlineConnect=0;fontColor=#232F3E;gradientColor=none;fillColor=#ED7100;strokeColor=none;dashed=0;verticalLabelPosition=bottom;verticalAlign=top;align=center;html=1;fontSize=12;fontStyle=0;aspect=fixed;pointerEvents=1;shape=mxgraph.aws4.lambda_function;" vertex="1" parent="TmK4IqOJt-yaaSat89dy-1">
          <mxGeometry x="142" y="70" width="48" height="48" as="geometry" />
        </mxCell>
        <mxCell id="TmK4IqOJt-yaaSat89dy-15" style="edgeStyle=orthogonalEdgeStyle;rounded=0;orthogonalLoop=1;jettySize=auto;html=1;" edge="1" parent="TmK4IqOJt-yaaSat89dy-1" source="TmK4IqOJt-yaaSat89dy-8" target="TmK4IqOJt-yaaSat89dy-2">
          <mxGeometry relative="1" as="geometry">
            <Array as="points">
              <mxPoint x="226" y="170" />
              <mxPoint x="166" y="170" />
            </Array>
          </mxGeometry>
        </mxCell>
        <mxCell id="TmK4IqOJt-yaaSat89dy-8" value="" style="sketch=0;outlineConnect=0;fontColor=#232F3E;gradientColor=none;fillColor=#ED7100;strokeColor=none;dashed=0;verticalLabelPosition=bottom;verticalAlign=top;align=center;html=1;fontSize=12;fontStyle=0;aspect=fixed;pointerEvents=1;shape=mxgraph.aws4.lambda_function;" vertex="1" parent="TmK4IqOJt-yaaSat89dy-1">
          <mxGeometry x="202" y="70" width="48" height="48" as="geometry" />
        </mxCell>
        <mxCell id="TmK4IqOJt-yaaSat89dy-14" style="edgeStyle=orthogonalEdgeStyle;rounded=0;orthogonalLoop=1;jettySize=auto;html=1;" edge="1" parent="TmK4IqOJt-yaaSat89dy-1" source="TmK4IqOJt-yaaSat89dy-9" target="TmK4IqOJt-yaaSat89dy-2">
          <mxGeometry relative="1" as="geometry">
            <Array as="points">
              <mxPoint x="286" y="170" />
              <mxPoint x="166" y="170" />
            </Array>
          </mxGeometry>
        </mxCell>
        <mxCell id="TmK4IqOJt-yaaSat89dy-9" value="" style="sketch=0;outlineConnect=0;fontColor=#232F3E;gradientColor=none;fillColor=#ED7100;strokeColor=none;dashed=0;verticalLabelPosition=bottom;verticalAlign=top;align=center;html=1;fontSize=12;fontStyle=0;aspect=fixed;pointerEvents=1;shape=mxgraph.aws4.lambda_function;" vertex="1" parent="TmK4IqOJt-yaaSat89dy-1">
          <mxGeometry x="262" y="70" width="48" height="48" as="geometry" />
        </mxCell>
        <mxCell id="TmK4IqOJt-yaaSat89dy-10" value="..." style="text;html=1;align=center;verticalAlign=middle;resizable=0;points=[];autosize=1;strokeColor=none;fillColor=none;fontSize=30;" vertex="1" parent="TmK4IqOJt-yaaSat89dy-1">
          <mxGeometry x="310" y="60" width="50" height="50" as="geometry" />
        </mxCell>
      </root>
    </mxGraphModel>
  </diagram>
</mxfile>
